<mxfile host="app.diagrams.net" agent="Mozilla/5.0 (Windows NT 10.0; Win64; x64) AppleWebKit/537.36 (KHTML, like Gecko) Chrome/137.0.0.0 Safari/537.36" version="27.1.6">
  <diagram name="Página-1" id="bfNclRx6qYKhGHA40akg">
    <mxGraphModel dx="1106" dy="611" grid="1" gridSize="10" guides="1" tooltips="1" connect="1" arrows="1" fold="1" page="1" pageScale="1" pageWidth="827" pageHeight="1169" math="0" shadow="0">
      <root>
        <mxCell id="0" />
        <mxCell id="1" parent="0" />
        <mxCell id="FM03_QXCqgYBUGcsR0oJ-1" value="Diagrama de Atividade - Comentar Post" style="shape=umlFrame;whiteSpace=wrap;html=1;pointerEvents=0;width=260;height=30;" parent="1" vertex="1">
          <mxGeometry x="160" y="140" width="590" height="280" as="geometry" />
        </mxCell>
        <mxCell id="g_6vb0iEWjoQ2F9PkCao-11" value="" style="edgeStyle=orthogonalEdgeStyle;rounded=0;orthogonalLoop=1;jettySize=auto;html=1;" parent="1" source="FM03_QXCqgYBUGcsR0oJ-2" target="g_6vb0iEWjoQ2F9PkCao-1" edge="1">
          <mxGeometry relative="1" as="geometry" />
        </mxCell>
        <mxCell id="FM03_QXCqgYBUGcsR0oJ-2" value="" style="ellipse;html=1;shape=startState;fillColor=#000000;strokeColor=#ff0000;" parent="1" vertex="1">
          <mxGeometry x="190" y="199" width="30" height="30" as="geometry" />
        </mxCell>
        <mxCell id="g_6vb0iEWjoQ2F9PkCao-10" style="edgeStyle=orthogonalEdgeStyle;rounded=0;orthogonalLoop=1;jettySize=auto;html=1;" parent="1" source="g_6vb0iEWjoQ2F9PkCao-1" target="g_6vb0iEWjoQ2F9PkCao-9" edge="1">
          <mxGeometry relative="1" as="geometry" />
        </mxCell>
        <mxCell id="g_6vb0iEWjoQ2F9PkCao-19" value="não" style="edgeLabel;html=1;align=center;verticalAlign=middle;resizable=0;points=[];" parent="g_6vb0iEWjoQ2F9PkCao-10" vertex="1" connectable="0">
          <mxGeometry x="-0.472" y="1" relative="1" as="geometry">
            <mxPoint x="14" y="-8" as="offset" />
          </mxGeometry>
        </mxCell>
        <mxCell id="g_6vb0iEWjoQ2F9PkCao-12" value="" style="edgeStyle=orthogonalEdgeStyle;rounded=0;orthogonalLoop=1;jettySize=auto;html=1;" parent="1" source="g_6vb0iEWjoQ2F9PkCao-1" target="g_6vb0iEWjoQ2F9PkCao-4" edge="1">
          <mxGeometry relative="1" as="geometry" />
        </mxCell>
        <mxCell id="g_6vb0iEWjoQ2F9PkCao-18" value="sim" style="edgeLabel;html=1;align=center;verticalAlign=middle;resizable=0;points=[];" parent="g_6vb0iEWjoQ2F9PkCao-12" vertex="1" connectable="0">
          <mxGeometry x="-0.68" y="-1" relative="1" as="geometry">
            <mxPoint y="-16" as="offset" />
          </mxGeometry>
        </mxCell>
        <mxCell id="g_6vb0iEWjoQ2F9PkCao-1" value="Usuário está logado?" style="rhombus;whiteSpace=wrap;html=1;fontColor=#000000;fillColor=#ffffc0;strokeColor=#ff0000;" parent="1" vertex="1">
          <mxGeometry x="260" y="177.5" width="110" height="72.5" as="geometry" />
        </mxCell>
        <mxCell id="MtIxxDXWaFk_820DcrJD-2" value="" style="edgeStyle=orthogonalEdgeStyle;rounded=0;orthogonalLoop=1;jettySize=auto;html=1;" edge="1" parent="1" source="g_6vb0iEWjoQ2F9PkCao-4" target="g_6vb0iEWjoQ2F9PkCao-6">
          <mxGeometry relative="1" as="geometry" />
        </mxCell>
        <mxCell id="g_6vb0iEWjoQ2F9PkCao-4" value="Selecionar post para comentar" style="rounded=1;whiteSpace=wrap;html=1;arcSize=40;fontColor=#000000;fillColor=#ffffc0;strokeColor=#ff0000;" parent="1" vertex="1">
          <mxGeometry x="430" y="194" width="120" height="40" as="geometry" />
        </mxCell>
        <mxCell id="MtIxxDXWaFk_820DcrJD-3" value="" style="edgeStyle=orthogonalEdgeStyle;rounded=0;orthogonalLoop=1;jettySize=auto;html=1;" edge="1" parent="1" source="g_6vb0iEWjoQ2F9PkCao-6" target="g_6vb0iEWjoQ2F9PkCao-8">
          <mxGeometry relative="1" as="geometry" />
        </mxCell>
        <mxCell id="g_6vb0iEWjoQ2F9PkCao-6" value="Digitar comentário" style="rounded=1;whiteSpace=wrap;html=1;arcSize=40;fontColor=#000000;fillColor=#ffffc0;strokeColor=#ff0000;" parent="1" vertex="1">
          <mxGeometry x="600" y="194" width="120" height="40" as="geometry" />
        </mxCell>
        <mxCell id="MtIxxDXWaFk_820DcrJD-4" value="" style="edgeStyle=orthogonalEdgeStyle;rounded=0;orthogonalLoop=1;jettySize=auto;html=1;" edge="1" parent="1" source="g_6vb0iEWjoQ2F9PkCao-7" target="g_6vb0iEWjoQ2F9PkCao-8">
          <mxGeometry relative="1" as="geometry" />
        </mxCell>
        <mxCell id="g_6vb0iEWjoQ2F9PkCao-7" value="Enviar comentário" style="rounded=1;whiteSpace=wrap;html=1;arcSize=40;fontColor=#000000;fillColor=#ffffc0;strokeColor=#ff0000;" parent="1" vertex="1">
          <mxGeometry x="600" y="270" width="120" height="40" as="geometry" />
        </mxCell>
        <mxCell id="MtIxxDXWaFk_820DcrJD-5" value="" style="edgeStyle=orthogonalEdgeStyle;rounded=0;orthogonalLoop=1;jettySize=auto;html=1;" edge="1" parent="1" source="g_6vb0iEWjoQ2F9PkCao-8" target="MtIxxDXWaFk_820DcrJD-1">
          <mxGeometry relative="1" as="geometry" />
        </mxCell>
        <mxCell id="g_6vb0iEWjoQ2F9PkCao-8" value="Salvar comentário no banco de dados" style="rounded=1;whiteSpace=wrap;html=1;arcSize=40;fontColor=#000000;fillColor=#ffffc0;strokeColor=#ff0000;" parent="1" vertex="1">
          <mxGeometry x="600" y="350" width="120" height="40" as="geometry" />
        </mxCell>
        <mxCell id="g_6vb0iEWjoQ2F9PkCao-9" value="" style="ellipse;html=1;shape=endState;fillColor=#000000;strokeColor=#ff0000;" parent="1" vertex="1">
          <mxGeometry x="300" y="355" width="30" height="30" as="geometry" />
        </mxCell>
        <mxCell id="MtIxxDXWaFk_820DcrJD-6" value="" style="edgeStyle=orthogonalEdgeStyle;rounded=0;orthogonalLoop=1;jettySize=auto;html=1;" edge="1" parent="1" source="MtIxxDXWaFk_820DcrJD-1" target="g_6vb0iEWjoQ2F9PkCao-9">
          <mxGeometry relative="1" as="geometry" />
        </mxCell>
        <mxCell id="MtIxxDXWaFk_820DcrJD-1" value="Atualizar post com novo comentário" style="rounded=1;whiteSpace=wrap;html=1;arcSize=40;fontColor=#000000;fillColor=#ffffc0;strokeColor=#ff0000;" vertex="1" parent="1">
          <mxGeometry x="430" y="350" width="120" height="40" as="geometry" />
        </mxCell>
      </root>
    </mxGraphModel>
  </diagram>
</mxfile>
